<svg viewBox="0 0 400 260" fill="none" xmlns="http://www.w3.org/2000/svg" preserveAspectRatio="xMidYMid slice">
  <rect width="400" height="260" fill="#edf7f7" />

  <!-- Central avatar — solo founder -->
  <circle cx="200" cy="80" r="30" fill="#1d3557" />
  <circle cx="200" cy="72" r="11" fill="#edf7f7" />
  <path d="M180 98a20 20 0 0 1 40 0" fill="#edf7f7" />

  <!-- Role badges radiating around the founder -->

  <!-- Top-left: Marketing -->
  <rect x="68" y="38" width="76" height="24" rx="12" fill="white" stroke="#a8dadc" stroke-width="1.2" />
  <circle cx="82" cy="50" r="5" fill="#a8dadc" />
  <text x="112" y="53" fill="#1d3557" font-size="8" font-family="system-ui,sans-serif" font-weight="600" text-anchor="middle">Campaign</text>
  <!-- connector line -->
  <line x1="144" y1="50" x2="172" y2="66" stroke="#a8dadc" stroke-width="1" stroke-dasharray="3 2" />

  <!-- Top-right: Analytics -->
  <rect x="256" y="38" width="76" height="24" rx="12" fill="white" stroke="#a8dadc" stroke-width="1.2" />
  <circle cx="270" cy="50" r="5" fill="#e07a5f" />
  <text x="298" y="53" fill="#1d3557" font-size="8" font-family="system-ui,sans-serif" font-weight="600" text-anchor="middle">Analytics</text>
  <line x1="256" y1="50" x2="228" y2="66" stroke="#a8dadc" stroke-width="1" stroke-dasharray="3 2" />

  <!-- Left: Content -->
  <rect x="52" y="88" width="72" height="24" rx="12" fill="white" stroke="#a8dadc" stroke-width="1.2" />
  <circle cx="66" cy="100" r="5" fill="#fec02f" />
  <text x="92" y="103" fill="#1d3557" font-size="8" font-family="system-ui,sans-serif" font-weight="600" text-anchor="middle">Content</text>
  <line x1="124" y1="100" x2="170" y2="86" stroke="#a8dadc" stroke-width="1" stroke-dasharray="3 2" />

  <!-- Right: Strategy -->
  <rect x="276" y="88" width="72" height="24" rx="12" fill="white" stroke="#a8dadc" stroke-width="1.2" />
  <circle cx="290" cy="100" r="5" fill="#457b9d" />
  <text x="316" y="103" fill="#1d3557" font-size="8" font-family="system-ui,sans-serif" font-weight="600" text-anchor="middle">Strategy</text>
  <line x1="276" y1="100" x2="230" y2="86" stroke="#a8dadc" stroke-width="1" stroke-dasharray="3 2" />

  <!-- Divider -->
  <line x1="100" y1="134" x2="300" y2="134" stroke="#dbe7ea" stroke-width="1" />

  <!-- Task list: Baram handles the pile-up -->
  <text x="112" y="152" fill="#90a4ae" font-size="7" font-family="system-ui,sans-serif" font-weight="600">BARAM EXECUTES</text>

  <!-- Task row 1 — checked -->
  <rect x="112" y="164" width="10" height="10" rx="2.5" fill="#a8dadc" />
  <path d="M114.5 169.5l2 2 4-4.5" stroke="white" stroke-width="1.4" stroke-linecap="round" stroke-linejoin="round" fill="none" />
  <rect x="130" y="166" width="100" height="6" rx="3" fill="#1d3557" fill-opacity="0.12" />

  <!-- Task row 2 — checked -->
  <rect x="112" y="182" width="10" height="10" rx="2.5" fill="#a8dadc" />
  <path d="M114.5 187.5l2 2 4-4.5" stroke="white" stroke-width="1.4" stroke-linecap="round" stroke-linejoin="round" fill="none" />
  <rect x="130" y="184" width="80" height="6" rx="3" fill="#1d3557" fill-opacity="0.12" />

  <!-- Task row 3 — checked -->
  <rect x="112" y="200" width="10" height="10" rx="2.5" fill="#a8dadc" />
  <path d="M114.5 205.5l2 2 4-4.5" stroke="white" stroke-width="1.4" stroke-linecap="round" stroke-linejoin="round" fill="none" />
  <rect x="130" y="202" width="120" height="6" rx="3" fill="#1d3557" fill-opacity="0.12" />

  <!-- Task row 4 — in progress -->
  <rect x="112" y="218" width="10" height="10" rx="2.5" fill="#f0f4f8" stroke="#dbe7ea" stroke-width="1" />
  <rect x="130" y="220" width="90" height="6" rx="3" fill="#1d3557" fill-opacity="0.08" />
</svg>
